<svg xmlns="http://www.w3.org/2000/svg" width="900" height="520" viewBox="0 0 900 520">
<rect width="100%" height="100%" fill="white" />
<text x="450.0" y="24" text-anchor="middle" font-size="20" font-weight="600" fill="#111827">Comparative MTTR Benchmark</text>
<text x="450.0" y="46" text-anchor="middle" font-size="13" fill="#374151">Manual / Overseer mean MTTR: 0.31x</text>
<text x="450.0" y="500" text-anchor="middle" font-size="14" fill="#374151">Recovery mode</text>
<text x="24" y="260.0" transform="rotate(-90 24,260.0)" text-anchor="middle" font-size="14" fill="#374151">MTTR (seconds)</text>
<line x1="90" y1="40" x2="90" y2="430" stroke="#111827" />
<line x1="90" y1="430" x2="860" y2="430" stroke="#111827" />
<line x1="90" y1="430.00" x2="860" y2="430.00" stroke="#e5e7eb" /><line x1="90" y1="352.00" x2="860" y2="352.00" stroke="#e5e7eb" /><line x1="90" y1="274.00" x2="860" y2="274.00" stroke="#e5e7eb" /><line x1="90" y1="196.00" x2="860" y2="196.00" stroke="#e5e7eb" /><line x1="90" y1="118.00" x2="860" y2="118.00" stroke="#e5e7eb" /><line x1="90" y1="40.00" x2="860" y2="40.00" stroke="#e5e7eb" />
<text x="80" y="434.00" text-anchor="end" font-size="12" fill="#374151">0.0</text><text x="80" y="356.00" text-anchor="end" font-size="12" fill="#374151">2.9</text><text x="80" y="278.00" text-anchor="end" font-size="12" fill="#374151">5.9</text><text x="80" y="200.00" text-anchor="end" font-size="12" fill="#374151">8.8</text><text x="80" y="122.00" text-anchor="end" font-size="12" fill="#374151">11.7</text><text x="80" y="44.00" text-anchor="end" font-size="12" fill="#374151">14.6</text>
<rect x="207.50" y="75.45" width="150" height="354.55" fill="#2563eb" rx="6" /><rect x="592.50" y="320.42" width="150" height="109.58" fill="#dc2626" rx="6" />
<line x1="207.50" y1="75.45" x2="357.50" y2="75.45" stroke="#111827" stroke-width="3" stroke-dasharray="6 4" /><line x1="592.50" y1="320.42" x2="742.50" y2="320.42" stroke="#111827" stroke-width="3" stroke-dasharray="6 4" />
<text x="282.50" y="455" text-anchor="middle" font-size="13" fill="#374151">Overseer</text><text x="282.50" y="67.45" text-anchor="middle" font-size="12" fill="#111827">13.3s</text><text x="667.50" y="455" text-anchor="middle" font-size="13" fill="#374151">Manual</text><text x="667.50" y="312.42" text-anchor="middle" font-size="12" fill="#111827">4.1s</text>
<rect x="630" y="72" width="210" height="74" rx="8" fill="#f9fafb" stroke="#d1d5db" />
<rect x="650" y="92" width="20" height="14" fill="#2563eb" rx="3" />
<text x="680" y="103" font-size="12" fill="#111827">Overseer mean</text>
<rect x="650" y="114" width="20" height="14" fill="#dc2626" rx="3" />
<text x="680" y="125" font-size="12" fill="#111827">Manual mean</text>
<line x1="650" y1="137" x2="670" y2="137" stroke="#111827" stroke-width="3" stroke-dasharray="6 4" />
<text x="680" y="141" font-size="12" fill="#111827">P95</text>
</svg>