<svg xmlns="http://www.w3.org/2000/svg" width="900" height="520" viewBox="0 0 900 520">
<rect width="100%" height="100%" fill="white" />
<text x="450.0" y="24" text-anchor="middle" font-size="20" font-weight="600" fill="#111827">Zero-Copy vs JSON Latency</text>
<text x="450.0" y="500" text-anchor="middle" font-size="14" fill="#374151">Dataset size (rows)</text>
<text x="24" y="260.0" transform="rotate(-90 24,260.0)" text-anchor="middle" font-size="14" fill="#374151">Mean latency (ms)</text>
<line x1="90" y1="40" x2="90" y2="440" stroke="#111827" />
<line x1="90" y1="440" x2="860" y2="440" stroke="#111827" />
<line x1="90" y1="440.00" x2="860" y2="440.00" stroke="#e5e7eb" /><line x1="90" y1="360.00" x2="860" y2="360.00" stroke="#e5e7eb" /><line x1="90" y1="280.00" x2="860" y2="280.00" stroke="#e5e7eb" /><line x1="90" y1="200.00" x2="860" y2="200.00" stroke="#e5e7eb" /><line x1="90" y1="120.00" x2="860" y2="120.00" stroke="#e5e7eb" /><line x1="90" y1="40.00" x2="860" y2="40.00" stroke="#e5e7eb" />
<text x="80" y="444.00" text-anchor="end" font-size="12" fill="#374151">0.0</text><text x="80" y="364.00" text-anchor="end" font-size="12" fill="#374151">105.7</text><text x="80" y="284.00" text-anchor="end" font-size="12" fill="#374151">211.4</text><text x="80" y="204.00" text-anchor="end" font-size="12" fill="#374151">317.1</text><text x="80" y="124.00" text-anchor="end" font-size="12" fill="#374151">422.8</text><text x="80" y="44.00" text-anchor="end" font-size="12" fill="#374151">528.5</text>
<text x="475.00" y="465" text-anchor="middle" font-size="12" fill="#374151">10,000</text>
<polyline fill="none" stroke="#dc2626" stroke-width="3" stroke-linejoin="round" stroke-linecap="round" points="475.00,76.36" />
<polyline fill="none" stroke="#2563eb" stroke-width="3" stroke-linejoin="round" stroke-linecap="round" points="475.00,386.19" />
<circle cx="475.00" cy="76.36" r="4" fill="#dc2626" /><circle cx="475.00" cy="386.19" r="4" fill="#2563eb" />
<rect x="670" y="50" width="170" height="54" rx="8" fill="#f9fafb" stroke="#d1d5db" />
<line x1="688" y1="72" x2="720" y2="72" stroke="#dc2626" stroke-width="3" />
<text x="732" y="76" font-size="12" fill="#111827">Serialized</text>
<line x1="688" y1="92" x2="720" y2="92" stroke="#2563eb" stroke-width="3" />
<text x="732" y="96" font-size="12" fill="#111827">Zero-copy</text>
</svg>