<svg xmlns="http://www.w3.org/2000/svg" width="980" height="560" viewBox="0 0 980 560">
<rect width="100%" height="100%" fill="white" />
<text x="490.0" y="28" text-anchor="middle" font-size="20" font-weight="600" fill="#111827">Market Pulse System Comparison</text>
<text x="490.0" y="48" text-anchor="middle" font-size="13" fill="#374151">Bar = mean end-to-end latency, dashed line = P95 latency</text>
<text x="490.0" y="542" text-anchor="middle" font-size="14" fill="#374151">System</text>
<text x="24" y="280.0" transform="rotate(-90 24,280.0)" text-anchor="middle" font-size="14" fill="#374151">Latency (seconds)</text>
<line x1="90" y1="50" x2="90" y2="460" stroke="#111827" />
<line x1="90" y1="460" x2="940" y2="460" stroke="#111827" />
<line x1="90" y1="460.00" x2="940" y2="460.00" stroke="#e5e7eb" /><line x1="90" y1="378.00" x2="940" y2="378.00" stroke="#e5e7eb" /><line x1="90" y1="296.00" x2="940" y2="296.00" stroke="#e5e7eb" /><line x1="90" y1="214.00" x2="940" y2="214.00" stroke="#e5e7eb" /><line x1="90" y1="132.00" x2="940" y2="132.00" stroke="#e5e7eb" /><line x1="90" y1="50.00" x2="940" y2="50.00" stroke="#e5e7eb" />
<text x="80" y="464.00" text-anchor="end" font-size="12" fill="#374151">0.00</text><text x="80" y="382.00" text-anchor="end" font-size="12" fill="#374151">12.73</text><text x="80" y="300.00" text-anchor="end" font-size="12" fill="#374151">25.46</text><text x="80" y="218.00" text-anchor="end" font-size="12" fill="#374151">38.19</text><text x="80" y="136.00" text-anchor="end" font-size="12" fill="#374151">50.91</text><text x="80" y="54.00" text-anchor="end" font-size="12" fill="#374151">63.64</text>
<rect x="161.67" y="103.48" width="140" height="356.52" fill="#1d4ed8" rx="6" /><line x1="161.67" y1="-327.11" x2="301.67" y2="-327.11" stroke="#111827" stroke-width="3" stroke-dasharray="6 4" /><rect x="445.00" y="148.30" width="140" height="311.70" fill="#d97706" rx="6" /><line x1="445.00" y1="47.78" x2="585.00" y2="47.78" stroke="#111827" stroke-width="3" stroke-dasharray="6 4" /><rect x="728.33" y="263.71" width="140" height="196.29" fill="#059669" rx="6" /><line x1="728.33" y1="247.19" x2="868.33" y2="247.19" stroke="#111827" stroke-width="3" stroke-dasharray="6 4" />
<text x="231.67" y="482" text-anchor="middle" font-size="12" fill="#374151">Plain</text><text x="231.67" y="95.48" text-anchor="middle" font-size="12" fill="#111827">55.34s</text><text x="515.00" y="482" text-anchor="middle" font-size="12" fill="#374151">Spark + Glue</text><text x="515.00" y="140.30" text-anchor="middle" font-size="12" fill="#111827">48.38s</text><text x="798.33" y="482" text-anchor="middle" font-size="12" fill="#374151">Integrated</text><text x="798.33" y="255.71" text-anchor="middle" font-size="12" fill="#111827">30.47s</text>
</svg>