<svg xmlns="http://www.w3.org/2000/svg" width="960" height="560" viewBox="0 0 960 560">
<rect width="100%" height="100%" fill="white" />
<text x="480.0" y="28" text-anchor="middle" font-size="20" font-weight="600" fill="#111827">Integrated Workflow Stage Breakdown</text>
<text x="480.0" y="48" text-anchor="middle" font-size="13" fill="#374151">Bar = mean latency, dashed line = P95 latency</text>
<text x="480.0" y="542" text-anchor="middle" font-size="14" fill="#374151">Workflow stage</text>
<text x="24" y="280.0" transform="rotate(-90 24,280.0)" text-anchor="middle" font-size="14" fill="#374151">Latency (seconds)</text>
<line x1="90" y1="50" x2="90" y2="460" stroke="#111827" />
<line x1="90" y1="460" x2="920" y2="460" stroke="#111827" />
<line x1="90" y1="460.00" x2="920" y2="460.00" stroke="#e5e7eb" /><line x1="90" y1="378.00" x2="920" y2="378.00" stroke="#e5e7eb" /><line x1="90" y1="296.00" x2="920" y2="296.00" stroke="#e5e7eb" /><line x1="90" y1="214.00" x2="920" y2="214.00" stroke="#e5e7eb" /><line x1="90" y1="132.00" x2="920" y2="132.00" stroke="#e5e7eb" /><line x1="90" y1="50.00" x2="920" y2="50.00" stroke="#e5e7eb" />
<text x="80" y="464.00" text-anchor="end" font-size="12" fill="#374151">0.00</text><text x="80" y="382.00" text-anchor="end" font-size="12" fill="#374151">7.01</text><text x="80" y="300.00" text-anchor="end" font-size="12" fill="#374151">14.02</text><text x="80" y="218.00" text-anchor="end" font-size="12" fill="#374151">21.02</text><text x="80" y="136.00" text-anchor="end" font-size="12" fill="#374151">28.03</text><text x="80" y="54.00" text-anchor="end" font-size="12" fill="#374151">35.04</text>
<rect x="114.17" y="305.83" width="90" height="154.17" fill="#2563eb" rx="6" /><line x1="114.17" y1="276.55" x2="204.17" y2="276.55" stroke="#111827" stroke-width="3" stroke-dasharray="6 4" /><rect x="252.50" y="297.35" width="90" height="162.65" fill="#0f766e" rx="6" /><line x1="252.50" y1="292.85" x2="342.50" y2="292.85" stroke="#111827" stroke-width="3" stroke-dasharray="6 4" /><rect x="390.83" y="448.02" width="90" height="11.98" fill="#dc2626" rx="6" /><line x1="390.83" y1="447.49" x2="480.83" y2="447.49" stroke="#111827" stroke-width="3" stroke-dasharray="6 4" /><rect x="529.17" y="456.97" width="90" height="3.03" fill="#7c3aed" rx="6" /><line x1="529.17" y1="456.68" x2="619.17" y2="456.68" stroke="#111827" stroke-width="3" stroke-dasharray="6 4" /><rect x="667.50" y="453.36" width="90" height="6.64" fill="#d97706" rx="6" /><line x1="667.50" y1="437.16" x2="757.50" y2="437.16" stroke="#111827" stroke-width="3" stroke-dasharray="6 4" /><rect x="805.83" y="103.48" width="90" height="356.52" fill="#111827" rx="6" /><line x1="805.83" y1="73.47" x2="895.83" y2="73.47" stroke="#111827" stroke-width="3" stroke-dasharray="6 4" />
<text x="159.17" y="482" text-anchor="middle" font-size="12" fill="#374151">Ingest</text><text x="159.17" y="297.83" text-anchor="middle" font-size="12" fill="#111827">13.18s</text><text x="297.50" y="482" text-anchor="middle" font-size="12" fill="#374151">Agent Setup</text><text x="297.50" y="289.35" text-anchor="middle" font-size="12" fill="#111827">13.90s</text><text x="435.83" y="482" text-anchor="middle" font-size="12" fill="#374151">Signal</text><text x="435.83" y="440.02" text-anchor="middle" font-size="12" fill="#111827">1.02s</text><text x="574.17" y="482" text-anchor="middle" font-size="12" fill="#374151">Persistence</text><text x="574.17" y="448.97" text-anchor="middle" font-size="12" fill="#111827">0.26s</text><text x="712.50" y="482" text-anchor="middle" font-size="12" fill="#374151">Visibility</text><text x="712.50" y="445.36" text-anchor="middle" font-size="12" fill="#111827">0.57s</text><text x="850.83" y="482" text-anchor="middle" font-size="12" fill="#374151">Total</text><text x="850.83" y="95.48" text-anchor="middle" font-size="12" fill="#111827">30.47s</text>
</svg>